{
  "accessors": [
    {
      "bufferView": 2,
      "componentType": 5126,
      "count": 65532,
      "max": [
        1136.280029296875,
        601.86328125,
        446.8382263183594
      ],
      "min": [
        -1217.8878173828125,
        -333.22137451171875,
        -722.0115356445313
      ],
      "type": "VEC3"
    },
    {
      "bufferView": 2,
      "byteOffset": 786384,
      "componentType": 5126,
      "count": 65532,
      "max": [
        0.9999985694885254,
        0.9999974966049194,
        0.9999955892562866
      ],
      "min": [
        -0.9999994039535522,
        -0.9996656775474548,
        -0.9999945163726807
      ],
      "type": "VEC3"
    },
    {
      "bufferView": 1,
      "componentType": 5126,
      "count": 65532,
      "max": [
        0.9952509999275208,
        0.9992790222167969
      ],
      "min": [
        0.0062350002117455006,
        0.0030150413513183594
      ],
      "type": "VEC2"
    },
    {
      "bufferView": 0,
      "componentType": 5125,
      "count": 316350,
      "type": "SCALAR"
    },
    {
      "bufferView": 2,
      "byteOffset": 1572768,
      "componentType": 5126,
      "count": 22550,
      "max": [
        1134.9033203125,
        489.4571533203125,
        446.8382263183594
      ],
      "min": [
        238.37039184570313,
        -356.4119567871094,
        -722.0115356445313
      ],
      "type": "VEC3"
    },
    {
      "bufferView": 2,
      "byteOffset": 1843368,
      "componentType": 5126,
      "count": 22550,
      "max": [
        0.9999980926513672,
        0.9999904632568359,
        0.9999953508377075
      ],
      "min": [
        -0.9999953508377075,
        -0.999961793422699,
        -0.9999885559082031
      ],
      "type": "VEC3"
    },
    {
      "bufferView": 1,
      "byteOffset": 524256,
      "componentType": 5126,
      "count": 22550,
      "max": [
        0.9958140254020691,
        0.9997119903564453
      ],
      "min": [
        0.0039980001747608185,
        0.0032690763473510742
      ],
      "type": "VEC2"
    },
    {
      "bufferView": 0,
      "byteOffset": 1265400,
      "componentType": 5125,
      "count": 104403,
      "type": "SCALAR"
    },
    {
      "bufferView": 2,
      "byteOffset": 2113968,
      "componentType": 5126,
      "count": 65532,
      "max": [
        1312.9117431640625,
        778.8796997070313,
        446.8382263183594
      ],
      "min": [
        -1186.964111328125,
        -355.1979064941406,
        -722.0115356445313
      ],
      "type": "VEC3"
    },
    {
      "bufferView": 2,
      "byteOffset": 2900352,
      "componentType": 5126,
      "count": 65532,
      "max": [
        0.9999998807907104,
        0.9999997615814209,
        0.9999992847442627
      ],
      "min": [
        -0.999984860420227,
        -0.9998458027839661,
        -0.9999954700469971
      ],
      "type": "VEC3"
    },
    {
      "bufferView": 1,
      "byteOffset": 704656,
      "componentType": 5126,
      "count": 65532,
      "max": [
        0.9967449903488159,
        0.9993699789047241
      ],
      "min": [
        0.0019829999655485153,
        0.0034170150756835938
      ],
      "type": "VEC2"
    },
    {
      "bufferView": 0,
      "byteOffset": 1683012,
      "componentType": 5125,
      "count": 350082,
      "type": "SCALAR"
    },
    {
      "bufferView": 2,
      "byteOffset": 3686736,
      "componentType": 5126,
      "count": 26904,
      "max": [
        698.3211059570313,
        778.0755615234375,
        446.8382263183594
      ],
      "min": [
        -591.1154174804688,
        -339.5775451660156,
        -722.0115356445313
      ],
      "type": "VEC3"
    },
    {
      "bufferView": 2,
      "byteOffset": 4009584,
      "componentType": 5126,
      "count": 26904,
      "max": [
        0.9999972581863403,
        0.9999997615814209,
        0.9999995231628418
      ],
      "min": [
        -0.9999866485595703,
        -0.9998908638954163,
        -0.9997642040252686
      ],
      "type": "VEC3"
    },
    {
      "bufferView": 1,
      "byteOffset": 1228912,
      "componentType": 5126,
      "count": 26904,
      "max": [
        0.9959980249404907,
        0.9983779788017273
      ],
      "min": [
        0.003519000019878149,
        0.0036960840225219727
      ],
      "type": "VEC2"
    },
    {
      "bufferView": 0,
      "byteOffset": 3083340,
      "componentType": 5125,
      "count": 125541,
      "type": "SCALAR"
    },
    {
      "bufferView": 2,
      "byteOffset": 4332432,
      "componentType": 5126,
      "count": 65532,
      "max": [
        1312.9117431640625,
        779.9774780273438,
        446.8382263183594
      ],
      "min": [
        -992.7848510742188,
        -381.9776306152344,
        -722.0115356445313
      ],
      "type": "VEC3"
    },
    {
      "bufferView": 2,
      "byteOffset": 5118816,
      "componentType": 5126,
      "count": 65532,
      "max": [
        0.9999998807907104,
        0.9999991655349731,
        0.9999979734420776
      ],
      "min": [
        -1.0,
        -0.9992058873176575,
        -0.999998927116394
      ],
      "type": "VEC3"
    },
    {
      "bufferView": 1,
      "byteOffset": 1444144,
      "componentType": 5126,
      "count": 65532,
      "max": [
        0.9977880120277405,
        0.9988769888877869
      ],
      "min": [
        0.0005649999948218465,
        0.003316044807434082
      ],
      "type": "VEC2"
    },
    {
      "bufferView": 0,
      "byteOffset": 3585504,
      "componentType": 5125,
      "count": 357099,
      "type": "SCALAR"
    },
    {
      "bufferView": 2,
      "byteOffset": 5905200,
      "componentType": 5126,
      "count": 38389,
      "max": [
        768.7882690429688,
        776.9021606445313,
        446.8382263183594
      ],
      "min": [
        -1073.4608154296875,
        -319.6449890136719,
        -722.0115356445313
      ],
      "type": "VEC3"
    },
    {
      "bufferView": 2,
      "byteOffset": 6365868,
      "componentType": 5126,
      "count": 38389,
      "max": [
        0.9999994039535522,
        0.9999946355819702,
        0.9999966621398926
      ],
      "min": [
        -0.9999908208847046,
        -0.9998908638954163,
        -0.9999996423721313
      ],
      "type": "VEC3"
    },
    {
      "bufferView": 1,
      "byteOffset": 1968400,
      "componentType": 5126,
      "count": 38389,
      "max": [
        0.9957150220870972,
        1.0000970363616943
      ],
      "min": [
        0.01975799910724163,
        0.0037440061569213867
      ],
      "type": "VEC2"
    },
    {
      "bufferView": 0,
      "byteOffset": 5013900,
      "componentType": 5125,
      "count": 197445,
      "type": "SCALAR"
    },
    {
      "bufferView": 2,
      "byteOffset": 6826536,
      "componentType": 5126,
      "count": 65532,
      "max": [
        1312.9117431640625,
        777.1802368164063,
        446.8382263183594
      ],
      "min": [
        -1217.8878173828125,
        -375.6274719238281,
        -722.0115356445313
      ],
      "type": "VEC3"
    },
    {
      "bufferView": 2,
      "byteOffset": 7612920,
      "componentType": 5126,
      "count": 65532,
      "max": [
        0.999998927116394,
        0.9999997615814209,
        0.999998927116394
      ],
      "min": [
        -0.9999996423721313,
        -0.9996283650398254,
        -0.9999983310699463
      ],
      "type": "VEC3"
    },
    {
      "bufferView": 1,
      "byteOffset": 2275512,
      "componentType": 5126,
      "count": 65532,
      "max": [
        0.996537983417511,
        0.9997789859771729
      ],
      "min": [
        0.0037609999999403954,
        0.003455042839050293
      ],
      "type": "VEC2"
    },
    {
      "bufferView": 0,
      "byteOffset": 5803680,
      "componentType": 5125,
      "count": 344133,
      "type": "SCALAR"
    },
    {
      "bufferView": 2,
      "byteOffset": 8399304,
      "componentType": 5126,
      "count": 42138,
      "max": [
        434.68267822265625,
        735.5530395507813,
        446.8382263183594
      ],
      "min": [
        -1217.8878173828125,
        -332.7094421386719,
        -722.0115356445313
      ],
      "type": "VEC3"
    },
    {
      "bufferView": 2,
      "byteOffset": 8904960,
      "componentType": 5126,
      "count": 42138,
      "max": [
        0.9999940395355225,
        0.9999997615814209,
        0.999998927116394
      ],
      "min": [
        -0.9999899864196777,
        -0.9992508292198181,
        -0.9999984502792358
      ],
      "type": "VEC3"
    },
    {
      "bufferView": 1,
      "byteOffset": 2799768,
      "componentType": 5126,
      "count": 42138,
      "max": [
        0.9960640072822571,
        0.9987069964408875
      ],
      "min": [
        0.0037769998889416456,
        0.003972053527832031
      ],
      "type": "VEC2"
    },
    {
      "bufferView": 0,
      "byteOffset": 7180212,
      "componentType": 5125,
      "count": 206976,
      "type": "SCALAR"
    }
  ],
  "asset": {
    "extras": {
      "author": "3dpast (https://sketchfab.com/3dpast)",
      "license": "CC-BY-4.0 (http://creativecommons.org/licenses/by/4.0/)",
      "source": "https://sketchfab.com/3d-models/dalipi-ruins-3836a4858dad4874bc4d2a0b9db9ee69",
      "title": "Dalipi Ruins"
    },
    "generator": "Sketchfab-12.66.0",
    "version": "2.0"
  },
  "bufferViews": [
    {
      "buffer": 0,
      "byteLength": 8008116,
      "name": "floatBufferViews",
      "target": 34963
    },
    {
      "buffer": 0,
      "byteLength": 3136872,
      "byteOffset": 8008116,
      "byteStride": 8,
      "name": "floatBufferViews",
      "target": 34962
    },
    {
      "buffer": 0,
      "byteLength": 9410616,
      "byteOffset": 11144988,
      "byteStride": 12,
      "name": "floatBufferViews",
      "target": 34962
    }
  ],
  "buffers": [
    {
      "byteLength": 20555604,
      "uri": "scene.bin"
    }
  ],
  "extensionsUsed": [
    "KHR_materials_unlit"
  ],
  "images": [
    {
      "uri": "textures/rudere3_baseColor.jpeg"
    },
    {
      "uri": "textures/rudere_baseColor.jpeg"
    },
    {
      "uri": "textures/rudere1_baseColor.jpeg"
    },
    {
      "uri": "textures/rudere2_baseColor.jpeg"
    }
  ],
  "materials": [
    {
      "doubleSided": true,
      "extensions": {
        "KHR_materials_unlit": {}
      },
      "name": "rudere3",
      "pbrMetallicRoughness": {
        "baseColorTexture": {
          "index": 0
        },
        "metallicFactor": 0.0
      }
    },
    {
      "doubleSided": true,
      "extensions": {
        "KHR_materials_unlit": {}
      },
      "name": "rudere",
      "pbrMetallicRoughness": {
        "baseColorTexture": {
          "index": 1
        },
        "metallicFactor": 0.0
      }
    },
    {
      "doubleSided": true,
      "extensions": {
        "KHR_materials_unlit": {}
      },
      "name": "rudere1",
      "pbrMetallicRoughness": {
        "baseColorTexture": {
          "index": 2
        },
        "metallicFactor": 0.0
      }
    },
    {
      "doubleSided": true,
      "extensions": {
        "KHR_materials_unlit": {}
      },
      "name": "rudere2",
      "pbrMetallicRoughness": {
        "baseColorTexture": {
          "index": 3
        },
        "metallicFactor": 0.0
      }
    }
  ],
  "meshes": [
    {
      "name": "Oggetto_rudere3_0",
      "primitives": [
        {
          "attributes": {
            "NORMAL": 1,
            "POSITION": 0,
            "TEXCOORD_0": 2
          },
          "indices": 3,
          "material": 0,
          "mode": 4
        }
      ]
    },
    {
      "name": "Oggetto_rudere3_0",
      "primitives": [
        {
          "attributes": {
            "NORMAL": 5,
            "POSITION": 4,
            "TEXCOORD_0": 6
          },
          "indices": 7,
          "material": 0,
          "mode": 4
        }
      ]
    },
    {
      "name": "Oggetto_rudere_0",
      "primitives": [
        {
          "attributes": {
            "NORMAL": 9,
            "POSITION": 8,
            "TEXCOORD_0": 10
          },
          "indices": 11,
          "material": 1,
          "mode": 4
        }
      ]
    },
    {
      "name": "Oggetto_rudere_0",
      "primitives": [
        {
          "attributes": {
            "NORMAL": 13,
            "POSITION": 12,
            "TEXCOORD_0": 14
          },
          "indices": 15,
          "material": 1,
          "mode": 4
        }
      ]
    },
    {
      "name": "Oggetto_rudere1_0",
      "primitives": [
        {
          "attributes": {
            "NORMAL": 17,
            "POSITION": 16,
            "TEXCOORD_0": 18
          },
          "indices": 19,
          "material": 2,
          "mode": 4
        }
      ]
    },
    {
      "name": "Oggetto_rudere1_0",
      "primitives": [
        {
          "attributes": {
            "NORMAL": 21,
            "POSITION": 20,
            "TEXCOORD_0": 22
          },
          "indices": 23,
          "material": 2,
          "mode": 4
        }
      ]
    },
    {
      "name": "Oggetto_rudere2_0",
      "primitives": [
        {
          "attributes": {
            "NORMAL": 25,
            "POSITION": 24,
            "TEXCOORD_0": 26
          },
          "indices": 27,
          "material": 3,
          "mode": 4
        }
      ]
    },
    {
      "name": "Oggetto_rudere2_0",
      "primitives": [
        {
          "attributes": {
            "NORMAL": 29,
            "POSITION": 28,
            "TEXCOORD_0": 30
          },
          "indices": 31,
          "material": 3,
          "mode": 4
        }
      ]
    }
  ],
  "nodes": [
    {
      "children": [
        1
      ],
      "matrix": [
        0.006632404867559671,
        0.0,
        0.0,
        0.0,
        0.0,
        1.4726897185201418e-18,
        -0.006632404867559671,
        0.0,
        0.0,
        0.006632404867559671,
        1.4726897185201418e-18,
        0.0,
        0.0,
        0.0,
        0.0,
        1.0
      ],
      "name": "Sketchfab_model"
    },
    {
      "children": [
        2
      ],
      "matrix": [
        1.0,
        0.0,
        0.0,
        0.0,
        0.0,
        0.0,
        1.0,
        0.0,
        0.0,
        -1.0,
        0.0,
        0.0,
        0.0,
        0.0,
        0.0,
        1.0
      ],
      "name": "5b0bf2e7ed584119840e9da78475bc15.fbx"
    },
    {
      "children": [
        3
      ],
      "name": "RootNode"
    },
    {
      "children": [
        4,
        5,
        6,
        7,
        8,
        9,
        10,
        11
      ],
      "name": "Oggetto"
    },
    {
      "mesh": 0,
      "name": "Oggetto_rudere3_0"
    },
    {
      "mesh": 1,
      "name": "Oggetto_rudere3_0"
    },
    {
      "mesh": 2,
      "name": "Oggetto_rudere_0"
    },
    {
      "mesh": 3,
      "name": "Oggetto_rudere_0"
    },
    {
      "mesh": 4,
      "name": "Oggetto_rudere1_0"
    },
    {
      "mesh": 5,
      "name": "Oggetto_rudere1_0"
    },
    {
      "mesh": 6,
      "name": "Oggetto_rudere2_0"
    },
    {
      "mesh": 7,
      "name": "Oggetto_rudere2_0"
    }
  ],
  "samplers": [
    {
      "magFilter": 9729,
      "minFilter": 9987,
      "wrapS": 10497,
      "wrapT": 10497
    }
  ],
  "scene": 0,
  "scenes": [
    {
      "name": "Sketchfab_Scene",
      "nodes": [
        0
      ]
    }
  ],
  "textures": [
    {
      "sampler": 0,
      "source": 0
    },
    {
      "sampler": 0,
      "source": 1
    },
    {
      "sampler": 0,
      "source": 2
    },
    {
      "sampler": 0,
      "source": 3
    }
  ]
}
