<?xml version="1.0" encoding="UTF-8"?>
<svg id="uuid-17f3fb9f-5c8c-4961-b879-327b6caea437" data-name="Layer 1" xmlns="http://www.w3.org/2000/svg" viewBox="0 0 567.6 567.73">
  <defs>
    <style>
      .uuid-ae85a6bf-c185-4b49-ae90-efa57b8f9e72 {
        fill: #676b71;
      }

      .uuid-ae85a6bf-c185-4b49-ae90-efa57b8f9e72, .uuid-478062e0-c94d-4c3f-97df-5bf05472944a, .uuid-638c4695-3d0f-4260-8e22-3c997c7c898a, .uuid-9abd691f-f4cb-428d-9add-b084f459114a, .uuid-17317a3f-5e6b-4692-af3a-0361caa3b670, .uuid-bb919317-177a-4b22-ad11-6b9350214875 {
        stroke-width: 0px;
      }

      .uuid-478062e0-c94d-4c3f-97df-5bf05472944a {
        fill: #4db8e9;
      }

      .uuid-638c4695-3d0f-4260-8e22-3c997c7c898a {
        fill: #0068aa;
      }

      .uuid-9abd691f-f4cb-428d-9add-b084f459114a {
        fill: #b61437;
      }

      .uuid-17317a3f-5e6b-4692-af3a-0361caa3b670 {
        fill: #4c6ab2;
      }

      .uuid-bb919317-177a-4b22-ad11-6b9350214875 {
        fill: #bdb2b9;
      }
    </style>
  </defs>
  <path class="uuid-9abd691f-f4cb-428d-9add-b084f459114a" d="M567.51,284.4c-.37,159.52-124.59,282.06-280.51,283.32C132.08,568.98-5.35,442.59.16,274.24,4.88,130.15,128.34.33,285.63,0c152.1-.32,285.94,129.53,281.88,284.4ZM285.22,560.09c137.41,1.07,265.53-105.59,274.79-259.65C569.02,150.58,454.34,15.53,293.55,8.76,151.54,2.79,10.64,116.98,8.47,282.79c-1.78,135.75,108.2,276.75,276.75,277.3Z"/>
  <path class="uuid-ae85a6bf-c185-4b49-ae90-efa57b8f9e72" d="M285.22,560.09C116.67,559.54,6.69,418.54,8.47,282.79,10.64,116.98,151.54,2.79,293.55,8.76c160.79,6.76,275.48,141.82,266.47,291.68-9.26,154.06-137.37,260.71-274.79,259.65ZM537.8,283.64c-.61-143.34-114.32-253.05-250.14-253.33C137.85,30.01,30.95,143.11,31.07,288.47c.12,140.38,114.29,247.83,249.6,250.33,145.19,2.68,258.26-114.47,257.13-255.16Z"/>
  <path class="uuid-9abd691f-f4cb-428d-9add-b084f459114a" d="M537.8,283.64c1.13,140.69-111.94,257.84-257.13,255.16-135.31-2.5-249.47-109.94-249.6-250.33-.13-145.36,106.77-258.46,256.59-258.16,135.82.27,249.54,109.99,250.14,253.33ZM284.3,459.86c17.5,0,35-.28,52.48.16,5.83.15,5.96-2,5.15-6.55-7.62-42.72-15.1-85.46-22.61-128.2-.49-2.77-.59-4.71,3.25-5.72,56.58-14.84,98-62.77,104.53-120.66,1.79-15.87,1.79-15.77-14.2-15.89-3.98-.03-6.2.23-6.56,5.28-4.43,62.4-45.6,105.98-107.95,114.41-3.64.49-4.23,1.69-3.61,5.12,7.5,42.06,14.8,84.14,22.29,126.2.67,3.76-.13,4.87-4.08,4.83-18.66-.19-37.32-.26-55.98.04-4.76.08-5.36-1.37-4.62-5.55,7.38-41.73,14.52-83.51,22.01-125.23.75-4.2-.22-5.01-4.09-5.49-57.02-7.07-99.22-47.62-106.29-104.51-1.65-13.29-5.36-17.03-17.74-15.28-4.36.62-4.99,1.81-4.85,5.63,2.22,61.36,44.9,115.09,104.36,130.9,4.02,1.07,4.89,2.36,4.17,6.39-7.68,43.2-15.08,86.45-22.79,129.65-.76,4.25.67,4.56,4.14,4.54,17.66-.13,35.32-.06,52.99-.06ZM358.95,153.75c-6.69,11.05-13.81,17.01-24.29,18.43-7.54,1.02-15.28.58-22.94.62-16.43.07-16.29.02-16.48-16.61-.2-17.86-1.66-36.07,18.47-46.65h-58.35c10.85,5.23,16.36,13.26,18.01,23.36,1.22,7.48.81,15.24.86,22.88.11,17.05.04,16.86-16.92,17.09-18.14.25-36.43,1.3-46.72-19.57v60.15c7.21-14.76,19.34-20.11,34.74-19.77,9.31.2,21.73-3.34,27.11,1.32,5.86,5.08,1.28,17.82,1.8,27.21.85,15.38-4.52,27.53-19.01,35.12h59.58c-9.05-4.01-14.28-10.37-17.47-18.61-3.25-8.38-1.95-17.12-2.02-25.72-.16-19.3-.04-18.99,19.17-19.4,17.78-.38,34.88.09,44.45,19.69v-59.53ZM366.09,459.08c1.45-2.43,10.89,6.51,8.95-4.64-6.16-35.36-12.45-70.7-19.02-105.99-.84-4.52.23-6.09,4.23-8.1,62.48-31.38,95.97-81.98,99.91-151.9.1-1.76,1.59-5.05-1.76-5.25-5.97-.36-12.48-1.38-17.79.56-3.48,1.28-.79,7.86-1.83,11.98-.72,2.88-.57,5.96-1.08,8.9-10.54,60.43-44.58,101.44-101.97,122.99-3.49,1.31-4.27,2.69-3.59,6.44,6.92,38.61,13.84,77.23,20.13,115.95,1.35,8.29,4.06,12.07,13.81,9.05ZM205.3,459.81c2.65-2.03,8.97,3.91,10.29-3.46,7.34-41.06,14.45-82.15,21.71-123.22.54-3.08-.56-4.34-3.37-5.4-61.03-22.95-95.78-66.99-102.91-131.63-1.31-11.89-4.62-14.16-15.15-13.35-5.78.45-7.17,1.76-6.79,7.29,4.67,69.04,37.95,119.07,99.68,150.11,4.08,2.05,5.42,3.79,4.57,8.41-6.26,34.15-11.6,68.48-18.62,102.47-2.43,11.77,4.12,8.66,10.61,8.78Z"/>
  <path class="uuid-17317a3f-5e6b-4692-af3a-0361caa3b670" d="M284.3,459.86c-17.66,0-35.32-.07-52.99.06-3.47.03-4.9-.29-4.14-4.54,7.7-43.2,15.11-86.45,22.79-129.65.72-4.03-.15-5.32-4.17-6.39-59.47-15.81-102.14-69.53-104.36-130.9-.14-3.82.49-5.01,4.85-5.63,12.38-1.76,16.09,1.98,17.74,15.28,7.06,56.89,49.27,97.44,106.29,104.51,3.88.48,4.85,1.29,4.09,5.49-7.48,41.72-14.63,83.49-22.01,125.23-.74,4.18-.15,5.63,4.62,5.55,18.66-.31,37.32-.24,55.98-.04,3.95.04,4.75-1.06,4.08-4.83-7.48-42.06-14.79-84.15-22.29-126.2-.61-3.43-.03-4.63,3.61-5.12,62.35-8.43,103.53-52.01,107.95-114.41.36-5.05,2.58-5.31,6.56-5.28,15.99.11,15.99.01,14.2,15.89-6.54,57.89-47.96,105.82-104.53,120.66-3.84,1.01-3.74,2.95-3.25,5.72,7.51,42.74,14.99,85.48,22.61,128.2.81,4.56.69,6.7-5.15,6.55-17.48-.44-34.99-.16-52.48-.16Z"/>
  <path class="uuid-bb919317-177a-4b22-ad11-6b9350214875" d="M358.95,153.75v59.53c-9.57-19.6-26.67-20.07-44.45-19.69-19.21.41-19.33.11-19.17,19.4.07,8.6-1.23,17.34,2.02,25.72,3.19,8.24,8.42,14.6,17.47,18.61h-59.58c14.49-7.59,19.85-19.74,19.01-35.12-.52-9.39,4.06-22.13-1.8-27.21-5.38-4.66-17.79-1.12-27.11-1.32-15.4-.34-27.53,5.02-34.74,19.77v-60.15c10.28,20.87,28.58,19.82,46.72,19.57,16.96-.23,17.03-.04,16.92-17.09-.05-7.64.36-15.41-.86-22.88-1.65-10.1-7.16-18.13-18.01-23.36h58.35c-20.13,10.58-18.68,28.79-18.47,46.65.19,16.63.05,16.68,16.48,16.61,7.65-.03,15.4.4,22.94-.62,10.48-1.42,17.61-7.37,24.29-18.43Z"/>
  <path class="uuid-478062e0-c94d-4c3f-97df-5bf05472944a" d="M366.09,459.08c-9.75,3.02-12.47-.76-13.81-9.05-6.29-38.72-13.21-77.34-20.13-115.95-.67-3.75.1-5.13,3.59-6.44,57.39-21.56,91.43-62.56,101.97-122.99.51-2.94.36-6.03,1.08-8.9,1.03-4.12-1.66-10.7,1.83-11.98,5.3-1.94,11.82-.92,17.79-.56,3.35.2,1.86,3.5,1.76,5.25-3.94,69.92-37.42,120.52-99.91,151.9-3.99,2.01-5.07,3.57-4.23,8.1,6.56,35.29,12.86,70.63,19.02,105.99,1.94,11.15-7.5,2.21-8.95,4.64Z"/>
  <path class="uuid-638c4695-3d0f-4260-8e22-3c997c7c898a" d="M205.3,459.81c-6.49-.12-13.04,2.98-10.61-8.78,7.03-33.99,12.37-68.32,18.62-102.47.85-4.62-.49-6.36-4.57-8.41-61.73-31.04-95.01-81.06-99.68-150.11-.37-5.53,1.01-6.84,6.79-7.29,10.53-.81,13.84,1.45,15.15,13.35,7.13,64.63,41.88,108.67,102.91,131.63,2.82,1.06,3.92,2.32,3.37,5.4-7.26,41.07-14.37,82.17-21.71,123.22-1.32,7.37-7.64,1.43-10.29,3.46Z"/>
</svg>