{
  "accessors": [
    {
      "bufferView": 2,
      "componentType": 5126,
      "count": 10300,
      "max": [
        12.106257438659668,
        2.7794029712677,
        3.978893995285034
      ],
      "min": [
        -11.752410888671875,
        -3.057328939437866,
        0.008639000356197357
      ],
      "type": "VEC3"
    },
    {
      "bufferView": 2,
      "byteOffset": 123600,
      "componentType": 5126,
      "count": 10300,
      "max": [
        0.99658203125,
        0.9999074935913086,
        0.9999802112579346
      ],
      "min": [
        -0.9999834299087524,
        -0.9999942779541016,
        -1.0
      ],
      "type": "VEC3"
    },
    {
      "bufferView": 3,
      "componentType": 5126,
      "count": 10300,
      "max": [
        0.9993634223937988,
        0.9999008774757385,
        0.999999463558197,
        1.0
      ],
      "min": [
        -0.9992815256118774,
        -0.9999964237213135,
        -0.9999999403953552,
        -1.0
      ],
      "type": "VEC4"
    },
    {
      "bufferView": 1,
      "componentType": 5126,
      "count": 10300,
      "max": [
        0.9989950060844421,
        0.9998369812965393
      ],
      "min": [
        0.0001630000042496249,
        0.0007789999945089221
      ],
      "type": "VEC2"
    },
    {
      "bufferView": 0,
      "componentType": 5125,
      "count": 42588,
      "type": "SCALAR"
    }
  ],
  "asset": {
    "extras": {
      "author": "3Dystopia (https://sketchfab.com/Dystopia)",
      "license": "CC-BY-4.0 (http://creativecommons.org/licenses/by/4.0/)",
      "source": "https://sketchfab.com/3d-models/concrete-scan-no-3-7cc00f75d1574d34b22b6327b41a92f0",
      "title": "Concrete scan No. 3"
    },
    "generator": "Sketchfab-13.79.0",
    "version": "2.0"
  },
  "bufferViews": [
    {
      "buffer": 0,
      "byteLength": 170352,
      "name": "floatBufferViews",
      "target": 34963
    },
    {
      "buffer": 0,
      "byteLength": 82400,
      "byteOffset": 170352,
      "byteStride": 8,
      "name": "floatBufferViews",
      "target": 34962
    },
    {
      "buffer": 0,
      "byteLength": 247200,
      "byteOffset": 252752,
      "byteStride": 12,
      "name": "floatBufferViews",
      "target": 34962
    },
    {
      "buffer": 0,
      "byteLength": 164800,
      "byteOffset": 499952,
      "byteStride": 16,
      "name": "floatBufferViews",
      "target": 34962
    }
  ],
  "buffers": [
    {
      "byteLength": 664752,
      "uri": "scene.bin"
    }
  ],
  "images": [
    {
      "uri": "textures/concrete3_LowPoly.003_baseColor.jpeg"
    },
    {
      "uri": "textures/concrete3_LowPoly.003_normal.jpeg"
    }
  ],
  "materials": [
    {
      "doubleSided": true,
      "name": "concrete3_LowPoly.003",
      "normalTexture": {
        "index": 1
      },
      "pbrMetallicRoughness": {
        "baseColorTexture": {
          "index": 0
        },
        "metallicFactor": 0.0
      }
    }
  ],
  "meshes": [
    {
      "name": "Object_0",
      "primitives": [
        {
          "attributes": {
            "NORMAL": 1,
            "POSITION": 0,
            "TANGENT": 2,
            "TEXCOORD_0": 3
          },
          "indices": 4,
          "material": 0,
          "mode": 4
        }
      ]
    }
  ],
  "nodes": [
    {
      "children": [
        1
      ],
      "matrix": [
        1.0,
        0.0,
        0.0,
        0.0,
        0.0,
        2.220446049250313e-16,
        -1.0,
        0.0,
        0.0,
        1.0,
        2.220446049250313e-16,
        0.0,
        0.0,
        0.0,
        0.0,
        1.0
      ],
      "name": "Sketchfab_model"
    },
    {
      "children": [
        2
      ],
      "name": "concrete3_LowPoly.obj.cleaner.materialmerger.gles"
    },
    {
      "mesh": 0,
      "name": "Object_2"
    }
  ],
  "samplers": [
    {
      "magFilter": 9729,
      "minFilter": 9987,
      "wrapS": 10497,
      "wrapT": 10497
    }
  ],
  "scene": 0,
  "scenes": [
    {
      "name": "Sketchfab_Scene",
      "nodes": [
        0
      ]
    }
  ],
  "textures": [
    {
      "sampler": 0,
      "source": 0
    },
    {
      "sampler": 0,
      "source": 1
    }
  ]
}
