{
  "accessors": [
    {
      "bufferView": 1,
      "componentType": 5126,
      "count": 65532,
      "max": [
        11.177339553833008,
        25.135147094726563,
        706.0244750976563
      ],
      "min": [
        -3.9832589626312256,
        14.652299880981445,
        699.6293334960938
      ],
      "type": "VEC3"
    },
    {
      "bufferView": 1,
      "byteOffset": 786384,
      "componentType": 5126,
      "count": 65532,
      "max": [
        0.9999997019767761,
        0.9999958872795105,
        0.9999999403953552
      ],
      "min": [
        -0.999999463558197,
        -0.9999960660934448,
        -0.9999813437461853
      ],
      "type": "VEC3"
    },
    {
      "bufferView": 2,
      "componentType": 5126,
      "count": 65532,
      "max": [
        0.9803921580314636,
        0.9882352948188782,
        0.9882352948188782,
        1.0
      ],
      "min": [
        0.0,
        0.007843137718737125,
        0.0,
        1.0
      ],
      "type": "VEC4"
    },
    {
      "bufferView": 0,
      "componentType": 5125,
      "count": 313050,
      "type": "SCALAR"
    },
    {
      "bufferView": 1,
      "byteOffset": 1572768,
      "componentType": 5126,
      "count": 65532,
      "max": [
        11.12901496887207,
        25.132837295532227,
        705.9766235351563
      ],
      "min": [
        -2.5837302207946777,
        14.707839965820313,
        699.6509399414063
      ],
      "type": "VEC3"
    },
    {
      "bufferView": 1,
      "byteOffset": 2359152,
      "componentType": 5126,
      "count": 65532,
      "max": [
        0.9999999403953552,
        0.9999964237213135,
        1.0
      ],
      "min": [
        -0.9999958276748657,
        -0.9999960660934448,
        -0.9999996423721313
      ],
      "type": "VEC3"
    },
    {
      "bufferView": 2,
      "byteOffset": 1048512,
      "componentType": 5126,
      "count": 65532,
      "max": [
        0.9686274528503418,
        0.9607843160629272,
        0.95686274766922,
        1.0
      ],
      "min": [
        0.003921568859368563,
        0.003921568859368563,
        0.0,
        1.0
      ],
      "type": "VEC4"
    },
    {
      "bufferView": 0,
      "byteOffset": 1252200,
      "componentType": 5125,
      "count": 331371,
      "type": "SCALAR"
    },
    {
      "bufferView": 1,
      "byteOffset": 3145536,
      "componentType": 5126,
      "count": 65532,
      "max": [
        11.171834945678711,
        25.098037719726563,
        705.931884765625
      ],
      "min": [
        -3.2059712409973145,
        15.21446418762207,
        699.9010009765625
      ],
      "type": "VEC3"
    },
    {
      "bufferView": 1,
      "byteOffset": 3931920,
      "componentType": 5126,
      "count": 65532,
      "max": [
        0.9999991655349731,
        0.9999958872795105,
        0.9999992847442627
      ],
      "min": [
        -0.9999988079071045,
        -0.9999228119850159,
        -0.9999477863311768
      ],
      "type": "VEC3"
    },
    {
      "bufferView": 2,
      "byteOffset": 2097024,
      "componentType": 5126,
      "count": 65532,
      "max": [
        0.9725490212440491,
        0.9725490212440491,
        0.9764705896377563,
        1.0
      ],
      "min": [
        0.0,
        0.003921568859368563,
        0.0,
        1.0
      ],
      "type": "VEC4"
    },
    {
      "bufferView": 0,
      "byteOffset": 2577684,
      "componentType": 5125,
      "count": 339807,
      "type": "SCALAR"
    },
    {
      "bufferView": 1,
      "byteOffset": 4718304,
      "componentType": 5126,
      "count": 65533,
      "max": [
        11.115236282348633,
        25.131977081298828,
        706.0169677734375
      ],
      "min": [
        -3.9771008491516113,
        14.663951873779297,
        699.6416625976563
      ],
      "type": "VEC3"
    },
    {
      "bufferView": 1,
      "byteOffset": 5504700,
      "componentType": 5126,
      "count": 65533,
      "max": [
        0.9999993443489075,
        0.9999983310699463,
        0.9999998807907104
      ],
      "min": [
        -0.9999529123306274,
        -0.9999977350234985,
        -0.9999996423721313
      ],
      "type": "VEC3"
    },
    {
      "bufferView": 2,
      "byteOffset": 3145536,
      "componentType": 5126,
      "count": 65533,
      "max": [
        0.9725490212440491,
        0.9882352948188782,
        0.9882352948188782,
        1.0
      ],
      "min": [
        0.003921568859368563,
        0.007843137718737125,
        0.0,
        1.0
      ],
      "type": "VEC4"
    },
    {
      "bufferView": 0,
      "byteOffset": 3936912,
      "componentType": 5125,
      "count": 266631,
      "type": "SCALAR"
    },
    {
      "bufferView": 1,
      "byteOffset": 6291096,
      "componentType": 5126,
      "count": 23112,
      "max": [
        11.137303352355957,
        25.13027572631836,
        705.7642822265625
      ],
      "min": [
        -1.1440120935440063,
        15.346434593200684,
        699.924560546875
      ],
      "type": "VEC3"
    },
    {
      "bufferView": 1,
      "byteOffset": 6568440,
      "componentType": 5126,
      "count": 23112,
      "max": [
        0.9999801516532898,
        0.9999953508377075,
        1.0
      ],
      "min": [
        -0.9999952912330627,
        -0.9999894499778748,
        -0.9999947547912598
      ],
      "type": "VEC3"
    },
    {
      "bufferView": 2,
      "byteOffset": 4194064,
      "componentType": 5126,
      "count": 23112,
      "max": [
        0.9686274528503418,
        0.9725490212440491,
        0.9607843160629272,
        1.0
      ],
      "min": [
        0.0,
        0.003921568859368563,
        0.0,
        1.0
      ],
      "type": "VEC4"
    },
    {
      "bufferView": 0,
      "byteOffset": 5003436,
      "componentType": 5125,
      "count": 71871,
      "type": "SCALAR"
    }
  ],
  "asset": {
    "extras": {
      "author": "Ronnyr6 (https://sketchfab.com/Ronnyr6)",
      "license": "CC-BY-4.0 (http://creativecommons.org/licenses/by/4.0/)",
      "source": "https://sketchfab.com/3d-models/gonies-crete-abandonned-building-a14a2b17fb634dd7910ff7c715f1a5bb",
      "title": "Gonies, Crete Abandonned building"
    },
    "generator": "Sketchfab-13.30.0",
    "version": "2.0"
  },
  "bufferViews": [
    {
      "buffer": 0,
      "byteLength": 5290920,
      "name": "floatBufferViews",
      "target": 34963
    },
    {
      "buffer": 0,
      "byteLength": 6845784,
      "byteOffset": 5290920,
      "byteStride": 12,
      "name": "floatBufferViews",
      "target": 34962
    },
    {
      "buffer": 0,
      "byteLength": 4563856,
      "byteOffset": 12136704,
      "byteStride": 16,
      "name": "floatBufferViews",
      "target": 34962
    }
  ],
  "buffers": [
    {
      "byteLength": 16700560,
      "uri": "scene.bin"
    }
  ],
  "materials": [
    {
      "doubleSided": true,
      "name": "Scene_-_Root",
      "pbrMetallicRoughness": {
        "metallicFactor": 0.0,
        "roughnessFactor": 0.6
      }
    }
  ],
  "meshes": [
    {
      "name": "Object_0",
      "primitives": [
        {
          "attributes": {
            "COLOR_0": 2,
            "NORMAL": 1,
            "POSITION": 0
          },
          "indices": 3,
          "material": 0,
          "mode": 4
        }
      ]
    },
    {
      "name": "Object_1",
      "primitives": [
        {
          "attributes": {
            "COLOR_0": 6,
            "NORMAL": 5,
            "POSITION": 4
          },
          "indices": 7,
          "material": 0,
          "mode": 4
        }
      ]
    },
    {
      "name": "Object_2",
      "primitives": [
        {
          "attributes": {
            "COLOR_0": 10,
            "NORMAL": 9,
            "POSITION": 8
          },
          "indices": 11,
          "material": 0,
          "mode": 4
        }
      ]
    },
    {
      "name": "Object_3",
      "primitives": [
        {
          "attributes": {
            "COLOR_0": 14,
            "NORMAL": 13,
            "POSITION": 12
          },
          "indices": 15,
          "material": 0,
          "mode": 4
        }
      ]
    },
    {
      "name": "Object_4",
      "primitives": [
        {
          "attributes": {
            "COLOR_0": 18,
            "NORMAL": 17,
            "POSITION": 16
          },
          "indices": 19,
          "material": 0,
          "mode": 4
        }
      ]
    }
  ],
  "nodes": [
    {
      "children": [
        1
      ],
      "matrix": [
        2.220446049250313e-16,
        -2.220446049250313e-16,
        1.0,
        0.0,
        1.0,
        4.930380657631324e-32,
        -2.220446049250313e-16,
        0.0,
        0.0,
        1.0,
        2.220446049250313e-16,
        0.0,
        0.0,
        0.0,
        0.0,
        1.0
      ],
      "name": "Sketchfab_model"
    },
    {
      "children": [
        2,
        3,
        4,
        5,
        6
      ],
      "name": "Geode"
    },
    {
      "mesh": 0,
      "name": "Object_2"
    },
    {
      "mesh": 1,
      "name": "Object_3"
    },
    {
      "mesh": 2,
      "name": "Object_4"
    },
    {
      "mesh": 3,
      "name": "Object_5"
    },
    {
      "mesh": 4,
      "name": "Object_6"
    }
  ],
  "scene": 0,
  "scenes": [
    {
      "name": "Sketchfab_Scene",
      "nodes": [
        0
      ]
    }
  ]
}
