{
  "accessors": [
    {
      "bufferView": 2,
      "componentType": 5126,
      "count": 920,
      "max": [
        1.615378975868225,
        0.9974619746208191,
        0.8620418310165405
      ],
      "min": [
        -1.2790576219558716,
        -1.751587986946106,
        -1.0261526107788086
      ],
      "type": "VEC3"
    },
    {
      "bufferView": 2,
      "byteOffset": 11040,
      "componentType": 5126,
      "count": 920,
      "max": [
        0.9989984035491943,
        0.9999712705612183,
        0.9999940991401672
      ],
      "min": [
        -0.9945377111434937,
        -0.9986618161201477,
        -0.9998098611831665
      ],
      "type": "VEC3"
    },
    {
      "bufferView": 3,
      "componentType": 5126,
      "count": 920,
      "max": [
        0.9559164047241211,
        0.9993778467178345,
        0.9979327917098999,
        1.0
      ],
      "min": [
        -0.9768756031990051,
        -0.9999407529830933,
        -0.9994855523109436,
        1.0
      ],
      "type": "VEC4"
    },
    {
      "bufferView": 1,
      "componentType": 5126,
      "count": 920,
      "max": [
        0.998046875,
        0.998046875
      ],
      "min": [
        0.0019531850703060627,
        0.1072540283203125
      ],
      "type": "VEC2"
    },
    {
      "bufferView": 1,
      "byteOffset": 7360,
      "componentType": 5126,
      "count": 920,
      "max": [
        0.998046875,
        0.998046875
      ],
      "min": [
        0.0019531850703060627,
        0.1072540283203125
      ],
      "type": "VEC2"
    },
    {
      "bufferView": 1,
      "byteOffset": 14720,
      "componentType": 5126,
      "count": 920,
      "max": [
        0.998046875,
        0.998046875
      ],
      "min": [
        0.0019531850703060627,
        0.1072540283203125
      ],
      "type": "VEC2"
    },
    {
      "bufferView": 1,
      "byteOffset": 22080,
      "componentType": 5126,
      "count": 920,
      "max": [
        0.998046875,
        0.998046875
      ],
      "min": [
        0.0019531850703060627,
        0.1072540283203125
      ],
      "type": "VEC2"
    },
    {
      "bufferView": 0,
      "componentType": 5125,
      "count": 5424,
      "type": "SCALAR"
    }
  ],
  "asset": {
    "extras": {
      "author": "orkunsevengil (https://sketchfab.com/orkunsevengil)",
      "license": "CC-BY-4.0 (http://creativecommons.org/licenses/by/4.0/)",
      "source": "https://sketchfab.com/3d-models/glacier-3a99888fea90471ebb9bc2938a66e052",
      "title": "Glacier"
    },
    "generator": "Sketchfab-12.66.0",
    "version": "2.0"
  },
  "bufferViews": [
    {
      "buffer": 0,
      "byteLength": 21696,
      "name": "floatBufferViews",
      "target": 34963
    },
    {
      "buffer": 0,
      "byteLength": 29440,
      "byteOffset": 21696,
      "byteStride": 8,
      "name": "floatBufferViews",
      "target": 34962
    },
    {
      "buffer": 0,
      "byteLength": 22080,
      "byteOffset": 51136,
      "byteStride": 12,
      "name": "floatBufferViews",
      "target": 34962
    },
    {
      "buffer": 0,
      "byteLength": 14720,
      "byteOffset": 73216,
      "byteStride": 16,
      "name": "floatBufferViews",
      "target": 34962
    }
  ],
  "buffers": [
    {
      "byteLength": 87936,
      "uri": "scene.bin"
    }
  ],
  "images": [
    {
      "uri": "textures/01_-_Default_baseColor.png"
    },
    {
      "uri": "textures/01_-_Default_metallicRoughness.png"
    },
    {
      "uri": "textures/01_-_Default_normal.png"
    }
  ],
  "materials": [
    {
      "doubleSided": true,
      "emissiveFactor": [
        0.06999999999999999,
        0.06999999999999999,
        0.06999999999999999
      ],
      "name": "01_-_Default",
      "normalTexture": {
        "index": 2
      },
      "occlusionTexture": {
        "index": 1
      },
      "pbrMetallicRoughness": {
        "baseColorTexture": {
          "index": 0
        },
        "metallicFactor": 0.09927591463414634,
        "metallicRoughnessTexture": {
          "index": 1
        },
        "roughnessFactor": 0.6053734756097561
      }
    }
  ],
  "meshes": [
    {
      "name": "Glacier_lp_01 - Default_0",
      "primitives": [
        {
          "attributes": {
            "NORMAL": 1,
            "POSITION": 0,
            "TANGENT": 2,
            "TEXCOORD_0": 3,
            "TEXCOORD_1": 4,
            "TEXCOORD_2": 5,
            "TEXCOORD_3": 6
          },
          "indices": 7,
          "material": 0,
          "mode": 4
        }
      ]
    }
  ],
  "nodes": [
    {
      "children": [
        1
      ],
      "matrix": [
        1.0,
        7.828772954007203e-16,
        1.608122622957731e-16,
        0.0,
        1.6081226229577292e-16,
        5.053215392444312e-16,
        -1.0,
        0.0,
        -7.828772954007203e-16,
        1.0,
        5.053215392444312e-16,
        0.0,
        0.0,
        -2.220446049250313e-16,
        -4.930380657631324e-32,
        1.0
      ],
      "name": "Sketchfab_model"
    },
    {
      "children": [
        2
      ],
      "matrix": [
        1.0,
        0.0,
        0.0,
        0.0,
        0.0,
        0.0,
        1.0,
        0.0,
        0.0,
        -1.0,
        0.0,
        0.0,
        0.0,
        0.0,
        0.0,
        1.0
      ],
      "name": "glacier.FBX"
    },
    {
      "children": [
        3
      ],
      "name": "RootNode"
    },
    {
      "children": [
        4
      ],
      "matrix": [
        7.403378963470459,
        0.0,
        0.0,
        0.0,
        0.0,
        1.6438803570540859e-15,
        -7.403378963470459,
        0.0,
        0.0,
        7.403378963470459,
        1.6438803570540859e-15,
        0.0,
        0.0,
        0.0,
        0.0,
        1.0
      ],
      "name": "Glacier_lp"
    },
    {
      "mesh": 0,
      "name": "Glacier_lp_01 - Default_0"
    }
  ],
  "samplers": [
    {
      "magFilter": 9729,
      "minFilter": 9987,
      "wrapS": 10497,
      "wrapT": 10497
    }
  ],
  "scene": 0,
  "scenes": [
    {
      "name": "Sketchfab_Scene",
      "nodes": [
        0
      ]
    }
  ],
  "textures": [
    {
      "sampler": 0,
      "source": 0
    },
    {
      "sampler": 0,
      "source": 1
    },
    {
      "sampler": 0,
      "source": 2
    }
  ]
}
