{
  "accessors": [
    {
      "bufferView": 1,
      "componentType": 5126,
      "count": 10567,
      "max": [
        51.630001068115234,
        -15.49899959564209,
        40.51900100708008
      ],
      "min": [
        -41.0,
        -16.628000259399414,
        -9.704000473022461
      ],
      "type": "VEC3"
    },
    {
      "bufferView": 1,
      "byteOffset": 126804,
      "componentType": 5126,
      "count": 10567,
      "max": [
        1.0,
        0.9999998807907104,
        1.0
      ],
      "min": [
        -1.0,
        -1.0,
        -1.0
      ],
      "type": "VEC3"
    },
    {
      "bufferView": 0,
      "componentType": 5125,
      "count": 63162,
      "type": "SCALAR"
    },
    {
      "bufferView": 1,
      "byteOffset": 253608,
      "componentType": 5126,
      "count": 65534,
      "max": [
        49.84700012207031,
        -0.0,
        68.0
      ],
      "min": [
        -37.637001037597656,
        -105.08499908447266,
        -25.202999114990234
      ],
      "type": "VEC3"
    },
    {
      "bufferView": 1,
      "byteOffset": 1040016,
      "componentType": 5126,
      "count": 65534,
      "max": [
        1.0,
        1.0,
        1.0
      ],
      "min": [
        -1.0,
        -1.0,
        -1.0
      ],
      "type": "VEC3"
    },
    {
      "bufferView": 0,
      "byteOffset": 252648,
      "componentType": 5125,
      "count": 198402,
      "type": "SCALAR"
    },
    {
      "bufferView": 1,
      "byteOffset": 1826424,
      "componentType": 5126,
      "count": 65532,
      "max": [
        49.84700012207031,
        -0.0,
        64.69200134277344
      ],
      "min": [
        -37.637001037597656,
        -104.3949966430664,
        -25.202999114990234
      ],
      "type": "VEC3"
    },
    {
      "bufferView": 1,
      "byteOffset": 2612808,
      "componentType": 5126,
      "count": 65532,
      "max": [
        1.0,
        1.0,
        1.0
      ],
      "min": [
        -1.0,
        -1.0,
        -1.0
      ],
      "type": "VEC3"
    },
    {
      "bufferView": 0,
      "byteOffset": 1046256,
      "componentType": 5125,
      "count": 197379,
      "type": "SCALAR"
    },
    {
      "bufferView": 1,
      "byteOffset": 3399192,
      "componentType": 5126,
      "count": 65532,
      "max": [
        49.84700012207031,
        -0.0,
        68.0
      ],
      "min": [
        -39.21699905395508,
        -105.08499908447266,
        -25.202999114990234
      ],
      "type": "VEC3"
    },
    {
      "bufferView": 1,
      "byteOffset": 4185576,
      "componentType": 5126,
      "count": 65532,
      "max": [
        1.0,
        1.0,
        1.0
      ],
      "min": [
        -1.0,
        -1.0,
        -1.0
      ],
      "type": "VEC3"
    },
    {
      "bufferView": 0,
      "byteOffset": 1835772,
      "componentType": 5125,
      "count": 198234,
      "type": "SCALAR"
    },
    {
      "bufferView": 1,
      "byteOffset": 4971960,
      "componentType": 5126,
      "count": 12365,
      "max": [
        49.84700012207031,
        -0.0,
        68.0
      ],
      "min": [
        -31.293699264526367,
        -104.3949966430664,
        -25.12700080871582
      ],
      "type": "VEC3"
    },
    {
      "bufferView": 1,
      "byteOffset": 5120340,
      "componentType": 5126,
      "count": 12365,
      "max": [
        1.0,
        1.0,
        1.0
      ],
      "min": [
        -1.0,
        -1.0,
        -1.0
      ],
      "type": "VEC3"
    },
    {
      "bufferView": 0,
      "byteOffset": 2628708,
      "componentType": 5125,
      "count": 34629,
      "type": "SCALAR"
    },
    {
      "bufferView": 1,
      "byteOffset": 5268720,
      "componentType": 5126,
      "count": 65532,
      "max": [
        51.630001068115234,
        -10.90999984741211,
        62.638999938964844
      ],
      "min": [
        -25.67799949645996,
        -106.7229995727539,
        -29.408000946044922
      ],
      "type": "VEC3"
    },
    {
      "bufferView": 1,
      "byteOffset": 6055104,
      "componentType": 5126,
      "count": 65532,
      "max": [
        1.0,
        1.0,
        1.0
      ],
      "min": [
        -1.0,
        -1.0,
        -1.0
      ],
      "type": "VEC3"
    },
    {
      "bufferView": 0,
      "byteOffset": 2767224,
      "componentType": 5125,
      "count": 214290,
      "type": "SCALAR"
    },
    {
      "bufferView": 1,
      "byteOffset": 6841488,
      "componentType": 5126,
      "count": 34203,
      "max": [
        51.630001068115234,
        -10.90999984741211,
        62.638999938964844
      ],
      "min": [
        -41.0,
        -106.7229995727539,
        -29.408000946044922
      ],
      "type": "VEC3"
    },
    {
      "bufferView": 1,
      "byteOffset": 7251924,
      "componentType": 5126,
      "count": 34203,
      "max": [
        1.0,
        1.0,
        1.0
      ],
      "min": [
        -1.0,
        -1.0,
        -1.0
      ],
      "type": "VEC3"
    },
    {
      "bufferView": 0,
      "byteOffset": 3624384,
      "componentType": 5125,
      "count": 102138,
      "type": "SCALAR"
    },
    {
      "bufferView": 1,
      "byteOffset": 7662360,
      "componentType": 5126,
      "count": 5816,
      "max": [
        36.452999114990234,
        -15.076000213623047,
        54.874000549316406
      ],
      "min": [
        -25.822999954223633,
        -99.32599639892578,
        -33.83300018310547
      ],
      "type": "VEC3"
    },
    {
      "bufferView": 1,
      "byteOffset": 7732152,
      "componentType": 5126,
      "count": 5816,
      "max": [
        1.0,
        1.0,
        1.0
      ],
      "min": [
        -1.0,
        -1.0,
        -1.0
      ],
      "type": "VEC3"
    },
    {
      "bufferView": 0,
      "byteOffset": 4032936,
      "componentType": 5125,
      "count": 17490,
      "type": "SCALAR"
    },
    {
      "bufferView": 1,
      "byteOffset": 7801944,
      "componentType": 5126,
      "count": 65533,
      "max": [
        39.54600143432617,
        -13.70460033416748,
        57.024898529052734
      ],
      "min": [
        -26.804000854492188,
        -99.10099792480469,
        -49.09199905395508
      ],
      "type": "VEC3"
    },
    {
      "bufferView": 1,
      "byteOffset": 8588340,
      "componentType": 5126,
      "count": 65533,
      "max": [
        1.0,
        1.0,
        1.0
      ],
      "min": [
        -1.0,
        -1.0,
        -1.0
      ],
      "type": "VEC3"
    },
    {
      "bufferView": 0,
      "byteOffset": 4102896,
      "componentType": 5125,
      "count": 199038,
      "type": "SCALAR"
    },
    {
      "bufferView": 1,
      "byteOffset": 9374736,
      "componentType": 5126,
      "count": 2982,
      "max": [
        28.93000030517578,
        -18.26300048828125,
        18.190000534057617
      ],
      "min": [
        -12.529000282287598,
        -73.11399841308594,
        -44.15599822998047
      ],
      "type": "VEC3"
    },
    {
      "bufferView": 1,
      "byteOffset": 9410520,
      "componentType": 5126,
      "count": 2982,
      "max": [
        1.0,
        1.0,
        1.0
      ],
      "min": [
        -1.0,
        -1.0,
        -1.0
      ],
      "type": "VEC3"
    },
    {
      "bufferView": 0,
      "byteOffset": 4899048,
      "componentType": 5125,
      "count": 8385,
      "type": "SCALAR"
    },
    {
      "bufferView": 1,
      "byteOffset": 9446304,
      "componentType": 5126,
      "count": 65532,
      "max": [
        51.48899841308594,
        -9.029000282287598,
        61.22800064086914
      ],
      "min": [
        -38.42900085449219,
        -105.08499908447266,
        -82.0
      ],
      "type": "VEC3"
    },
    {
      "bufferView": 1,
      "byteOffset": 10232688,
      "componentType": 5126,
      "count": 65532,
      "max": [
        1.0,
        1.0,
        1.0
      ],
      "min": [
        -1.0,
        -1.0,
        -1.0
      ],
      "type": "VEC3"
    },
    {
      "bufferView": 0,
      "byteOffset": 4932588,
      "componentType": 5125,
      "count": 201312,
      "type": "SCALAR"
    },
    {
      "bufferView": 1,
      "byteOffset": 11019072,
      "componentType": 5126,
      "count": 65532,
      "max": [
        51.48899841308594,
        -9.029000282287598,
        61.22800064086914
      ],
      "min": [
        -40.85900115966797,
        -99.59660339355469,
        -82.0
      ],
      "type": "VEC3"
    },
    {
      "bufferView": 1,
      "byteOffset": 11805456,
      "componentType": 5126,
      "count": 65532,
      "max": [
        1.0,
        1.0,
        1.0
      ],
      "min": [
        -1.0,
        -1.0,
        -1.0
      ],
      "type": "VEC3"
    },
    {
      "bufferView": 0,
      "byteOffset": 5737836,
      "componentType": 5125,
      "count": 183318,
      "type": "SCALAR"
    },
    {
      "bufferView": 1,
      "byteOffset": 12591840,
      "componentType": 5126,
      "count": 37524,
      "max": [
        49.060001373291016,
        -10.336000442504883,
        60.44889831542969
      ],
      "min": [
        -30.506000518798828,
        -102.40399932861328,
        -82.0
      ],
      "type": "VEC3"
    },
    {
      "bufferView": 1,
      "byteOffset": 13042128,
      "componentType": 5126,
      "count": 37524,
      "max": [
        1.0,
        1.0,
        1.0
      ],
      "min": [
        -1.0,
        -1.0,
        -1.0
      ],
      "type": "VEC3"
    },
    {
      "bufferView": 0,
      "byteOffset": 6471108,
      "componentType": 5125,
      "count": 96144,
      "type": "SCALAR"
    },
    {
      "bufferView": 1,
      "byteOffset": 13492416,
      "componentType": 5126,
      "count": 17470,
      "max": [
        49.85200119018555,
        -3.1689999103546143,
        52.41600036621094
      ],
      "min": [
        -39.22200012207031,
        -28.524999618530273,
        -22.034000396728516
      ],
      "type": "VEC3"
    },
    {
      "bufferView": 1,
      "byteOffset": 13702056,
      "componentType": 5126,
      "count": 17470,
      "max": [
        1.0,
        1.0,
        1.0
      ],
      "min": [
        -1.0,
        -1.0,
        -1.0
      ],
      "type": "VEC3"
    },
    {
      "bufferView": 0,
      "byteOffset": 6855684,
      "componentType": 5125,
      "count": 52686,
      "type": "SCALAR"
    }
  ],
  "asset": {
    "extras": {
      "author": "CMFDesign (https://sketchfab.com/CMFDesign)",
      "license": "CC-BY-4.0 (http://creativecommons.org/licenses/by/4.0/)",
      "source": "https://sketchfab.com/3d-models/clawbot-v5-d42cfe4740834ff4af28cbec9614d192",
      "title": "Clawbot V5"
    },
    "generator": "Sketchfab-12.71.0",
    "version": "2.0"
  },
  "bufferViews": [
    {
      "buffer": 0,
      "byteLength": 7066428,
      "name": "floatBufferViews",
      "target": 34963
    },
    {
      "buffer": 0,
      "byteLength": 13911696,
      "byteOffset": 7066428,
      "byteStride": 12,
      "name": "floatBufferViews",
      "target": 34962
    }
  ],
  "buffers": [
    {
      "byteLength": 20978124,
      "uri": "scene.bin"
    }
  ],
  "materials": [
    {
      "doubleSided": true,
      "name": "color_10988977",
      "pbrMetallicRoughness": {
        "baseColorFactor": [
          0.654902,
          0.678431,
          0.694118,
          1.0
        ],
        "metallicFactor": 0.0
      }
    },
    {
      "doubleSided": true,
      "name": "color_1206582",
      "pbrMetallicRoughness": {
        "baseColorFactor": [
          0.0705882,
          0.411765,
          0.211765,
          1.0
        ],
        "metallicFactor": 0.0
      }
    },
    {
      "doubleSided": true,
      "name": "color_12568524",
      "pbrMetallicRoughness": {
        "baseColorFactor": [
          0.74902,
          0.780392,
          0.8,
          1.0
        ],
        "metallicFactor": 0.5964664274886133
      }
    },
    {
      "doubleSided": true,
      "name": "color_14789940",
      "pbrMetallicRoughness": {
        "baseColorFactor": [
          0.882353,
          0.678431,
          0.203922,
          1.0
        ],
        "metallicFactor": 0.0
      }
    },
    {
      "doubleSided": true,
      "name": "color_15277357",
      "pbrMetallicRoughness": {
        "baseColorFactor": [
          0.913725,
          0.113725,
          0.176471,
          1.0
        ],
        "metallicFactor": 0.0
      }
    },
    {
      "doubleSided": true,
      "name": "color_2829873",
      "pbrMetallicRoughness": {
        "baseColorFactor": [
          0.168627,
          0.180392,
          0.192157,
          1.0
        ],
        "metallicFactor": 0.0
      }
    },
    {
      "doubleSided": true,
      "name": "color_6383466",
      "pbrMetallicRoughness": {
        "baseColorFactor": [
          0.380392,
          0.403922,
          0.415686,
          1.0
        ],
        "metallicFactor": 0.0,
        "roughnessFactor": 0.0
      }
    }
  ],
  "meshes": [
    {
      "name": "Object_0",
      "primitives": [
        {
          "attributes": {
            "NORMAL": 1,
            "POSITION": 0
          },
          "indices": 2,
          "material": 0,
          "mode": 4
        }
      ]
    },
    {
      "name": "Object_1",
      "primitives": [
        {
          "attributes": {
            "NORMAL": 4,
            "POSITION": 3
          },
          "indices": 5,
          "material": 1,
          "mode": 4
        }
      ]
    },
    {
      "name": "Object_2",
      "primitives": [
        {
          "attributes": {
            "NORMAL": 7,
            "POSITION": 6
          },
          "indices": 8,
          "material": 1,
          "mode": 4
        }
      ]
    },
    {
      "name": "Object_3",
      "primitives": [
        {
          "attributes": {
            "NORMAL": 10,
            "POSITION": 9
          },
          "indices": 11,
          "material": 1,
          "mode": 4
        }
      ]
    },
    {
      "name": "Object_4",
      "primitives": [
        {
          "attributes": {
            "NORMAL": 13,
            "POSITION": 12
          },
          "indices": 14,
          "material": 1,
          "mode": 4
        }
      ]
    },
    {
      "name": "Object_5",
      "primitives": [
        {
          "attributes": {
            "NORMAL": 16,
            "POSITION": 15
          },
          "indices": 17,
          "material": 2,
          "mode": 4
        }
      ]
    },
    {
      "name": "Object_6",
      "primitives": [
        {
          "attributes": {
            "NORMAL": 19,
            "POSITION": 18
          },
          "indices": 20,
          "material": 2,
          "mode": 4
        }
      ]
    },
    {
      "name": "Object_7",
      "primitives": [
        {
          "attributes": {
            "NORMAL": 22,
            "POSITION": 21
          },
          "indices": 23,
          "material": 3,
          "mode": 4
        }
      ]
    },
    {
      "name": "Object_8",
      "primitives": [
        {
          "attributes": {
            "NORMAL": 25,
            "POSITION": 24
          },
          "indices": 26,
          "material": 4,
          "mode": 4
        }
      ]
    },
    {
      "name": "Object_9",
      "primitives": [
        {
          "attributes": {
            "NORMAL": 28,
            "POSITION": 27
          },
          "indices": 29,
          "material": 4,
          "mode": 4
        }
      ]
    },
    {
      "name": "Object_10",
      "primitives": [
        {
          "attributes": {
            "NORMAL": 31,
            "POSITION": 30
          },
          "indices": 32,
          "material": 5,
          "mode": 4
        }
      ]
    },
    {
      "name": "Object_11",
      "primitives": [
        {
          "attributes": {
            "NORMAL": 34,
            "POSITION": 33
          },
          "indices": 35,
          "material": 5,
          "mode": 4
        }
      ]
    },
    {
      "name": "Object_12",
      "primitives": [
        {
          "attributes": {
            "NORMAL": 37,
            "POSITION": 36
          },
          "indices": 38,
          "material": 5,
          "mode": 4
        }
      ]
    },
    {
      "name": "Object_13",
      "primitives": [
        {
          "attributes": {
            "NORMAL": 40,
            "POSITION": 39
          },
          "indices": 41,
          "material": 6,
          "mode": 4
        }
      ]
    }
  ],
  "nodes": [
    {
      "children": [
        1
      ],
      "matrix": [
        1.0,
        -4.2766807326921867e-16,
        -2.0491840341284925e-15,
        0.0,
        -4.553678770592273e-16,
        -0.9999083876609802,
        -0.013536610640585645,
        0.0,
        -2.0432069461361925e-15,
        0.013536610640585645,
        -0.9999083876609802,
        0.0,
        -3.8191672047105385e-14,
        -60.26167297363282,
        45.63999938964842,
        1.0
      ],
      "name": "Sketchfab_model"
    },
    {
      "children": [
        2,
        3,
        4,
        5,
        6,
        7,
        8,
        9,
        10,
        11,
        12,
        13,
        14,
        15
      ],
      "name": "tinker.obj.cleaner.materialmerger.gles"
    },
    {
      "mesh": 0,
      "name": "Object_2"
    },
    {
      "mesh": 1,
      "name": "Object_3"
    },
    {
      "mesh": 2,
      "name": "Object_4"
    },
    {
      "mesh": 3,
      "name": "Object_5"
    },
    {
      "mesh": 4,
      "name": "Object_6"
    },
    {
      "mesh": 5,
      "name": "Object_7"
    },
    {
      "mesh": 6,
      "name": "Object_8"
    },
    {
      "mesh": 7,
      "name": "Object_9"
    },
    {
      "mesh": 8,
      "name": "Object_10"
    },
    {
      "mesh": 9,
      "name": "Object_11"
    },
    {
      "mesh": 10,
      "name": "Object_12"
    },
    {
      "mesh": 11,
      "name": "Object_13"
    },
    {
      "mesh": 12,
      "name": "Object_14"
    },
    {
      "mesh": 13,
      "name": "Object_15"
    }
  ],
  "scene": 0,
  "scenes": [
    {
      "name": "Sketchfab_Scene",
      "nodes": [
        0
      ]
    }
  ]
}
