{
  "accessors": [
    {
      "bufferView": 2,
      "componentType": 5126,
      "count": 62881,
      "max": [
        14.330726623535156,
        19.513328552246094,
        10.38328742980957
      ],
      "min": [
        -11.393152236938477,
        -2.543765068054199,
        -4.692594051361084
      ],
      "type": "VEC3"
    },
    {
      "bufferView": 2,
      "byteOffset": 754572,
      "componentType": 5126,
      "count": 62881,
      "max": [
        0.9999250769615173,
        0.9999898076057434,
        0.999989926815033
      ],
      "min": [
        -0.999743640422821,
        -0.9999768733978271,
        -0.9999241828918457
      ],
      "type": "VEC3"
    },
    {
      "bufferView": 3,
      "componentType": 5126,
      "count": 62881,
      "max": [
        0.9882352948188782,
        0.9921568632125854,
        0.9803921580314636,
        1.0
      ],
      "min": [
        0.007843137718737125,
        0.019607843831181526,
        0.0,
        1.0
      ],
      "type": "VEC4"
    },
    {
      "bufferView": 1,
      "componentType": 5126,
      "count": 62881,
      "max": [
        0.9990159869194031,
        0.9999970197677612
      ],
      "min": [
        7.000000096013537e-06,
        1.8999999156221747e-05
      ],
      "type": "VEC2"
    },
    {
      "bufferView": 0,
      "componentType": 5125,
      "count": 150000,
      "type": "SCALAR"
    }
  ],
  "asset": {
    "extras": {
      "author": "Museum_Thievery (https://sketchfab.com/SergioSan)",
      "license": "CC-BY-4.0 (http://creativecommons.org/licenses/by/4.0/)",
      "source": "https://sketchfab.com/3d-models/abandono-25e63b30baac4f4689e2afe42e9a59d4",
      "title": "Abandono"
    },
    "generator": "Sketchfab-12.63.0",
    "version": "2.0"
  },
  "bufferViews": [
    {
      "buffer": 0,
      "byteLength": 600000,
      "name": "floatBufferViews",
      "target": 34963
    },
    {
      "buffer": 0,
      "byteLength": 503048,
      "byteOffset": 600000,
      "byteStride": 8,
      "name": "floatBufferViews",
      "target": 34962
    },
    {
      "buffer": 0,
      "byteLength": 1509144,
      "byteOffset": 1103048,
      "byteStride": 12,
      "name": "floatBufferViews",
      "target": 34962
    },
    {
      "buffer": 0,
      "byteLength": 1006096,
      "byteOffset": 2612192,
      "byteStride": 16,
      "name": "floatBufferViews",
      "target": 34962
    }
  ],
  "buffers": [
    {
      "byteLength": 3618288,
      "uri": "scene.bin"
    }
  ],
  "images": [
    {
      "uri": "textures/Abandono_baseColor.jpeg"
    },
    {
      "uri": "textures/Abandono_metallicRoughness.png"
    }
  ],
  "materials": [
    {
      "doubleSided": true,
      "name": "Abandono",
      "occlusionTexture": {
        "index": 1,
        "strength": 0.9018714947137657
      },
      "pbrMetallicRoughness": {
        "baseColorTexture": {
          "index": 0
        },
        "metallicFactor": 0.0,
        "metallicRoughnessTexture": {
          "index": 1
        }
      }
    }
  ],
  "meshes": [
    {
      "name": "Object_0",
      "primitives": [
        {
          "attributes": {
            "COLOR_0": 2,
            "NORMAL": 1,
            "POSITION": 0,
            "TEXCOORD_0": 3
          },
          "indices": 4,
          "material": 0,
          "mode": 4
        }
      ]
    }
  ],
  "nodes": [
    {
      "children": [
        1
      ],
      "matrix": [
        0.6991453170776367,
        -0.17173631489276903,
        0.6940478682518005,
        0.0,
        0.5496299862861633,
        -0.4917472302913664,
        -0.6753454804420472,
        0.0,
        0.45727747678756714,
        0.8536341786384583,
        -0.24941134452819805,
        0.0,
        -5.522727966308594,
        4.841064453125001,
        -3.064332962036132,
        1.0
      ],
      "name": "Sketchfab_model"
    },
    {
      "children": [
        2
      ],
      "name": "Abandono.obj.cleaner.materialmerger.gles"
    },
    {
      "mesh": 0,
      "name": "Object_2"
    }
  ],
  "samplers": [
    {
      "magFilter": 9729,
      "minFilter": 9987,
      "wrapS": 10497,
      "wrapT": 10497
    }
  ],
  "scene": 0,
  "scenes": [
    {
      "name": "Sketchfab_Scene",
      "nodes": [
        0
      ]
    }
  ],
  "textures": [
    {
      "sampler": 0,
      "source": 0
    },
    {
      "sampler": 0,
      "source": 1
    }
  ]
}
