{
  "accessors": [
    {
      "bufferView": 2,
      "componentType": 5126,
      "count": 65532,
      "max": [
        155.60662841796875,
        -393.3490295410156,
        165.6232147216797
      ],
      "min": [
        -156.6731719970703,
        -699.619384765625,
        -95.76716613769531
      ],
      "type": "VEC3"
    },
    {
      "bufferView": 2,
      "byteOffset": 786384,
      "componentType": 5126,
      "count": 65532,
      "max": [
        0.9997512102127075,
        0.9999653697013855,
        1.0
      ],
      "min": [
        -0.9999967813491821,
        -0.9967253804206848,
        -0.9998642206192017
      ],
      "type": "VEC3"
    },
    {
      "bufferView": 1,
      "componentType": 5126,
      "count": 65532,
      "max": [
        0.9656999707221985,
        0.8971689939498901
      ],
      "min": [
        0.0019920000340789557,
        0.005373999942094088
      ],
      "type": "VEC2"
    },
    {
      "bufferView": 0,
      "componentType": 5125,
      "count": 372750,
      "type": "SCALAR"
    },
    {
      "bufferView": 2,
      "byteOffset": 1572768,
      "componentType": 5126,
      "count": 65532,
      "max": [
        171.27174377441406,
        -392.6912841796875,
        169.36740112304688
      ],
      "min": [
        -152.53341674804688,
        -683.3701782226563,
        -96.15172576904297
      ],
      "type": "VEC3"
    },
    {
      "bufferView": 2,
      "byteOffset": 2359152,
      "componentType": 5126,
      "count": 65532,
      "max": [
        0.9999997615814209,
        0.999997615814209,
        0.9999580979347229
      ],
      "min": [
        -0.999991238117218,
        -0.9579610228538513,
        -0.9589813351631165
      ],
      "type": "VEC3"
    },
    {
      "bufferView": 1,
      "byteOffset": 524256,
      "componentType": 5126,
      "count": 65532,
      "max": [
        0.8652430176734924,
        0.837611973285675
      ],
      "min": [
        0.03540800139307976,
        0.001791000016964972
      ],
      "type": "VEC2"
    },
    {
      "bufferView": 0,
      "byteOffset": 1491000,
      "componentType": 5125,
      "count": 376722,
      "type": "SCALAR"
    },
    {
      "bufferView": 2,
      "byteOffset": 3145536,
      "componentType": 5126,
      "count": 65532,
      "max": [
        160.26803588867188,
        -394.5101623535156,
        159.0886688232422
      ],
      "min": [
        -153.96331787109375,
        -700.4869384765625,
        -97.68315124511719
      ],
      "type": "VEC3"
    },
    {
      "bufferView": 2,
      "byteOffset": 3931920,
      "componentType": 5126,
      "count": 65532,
      "max": [
        0.9996283650398254,
        0.9999970197677612,
        0.9999972581863403
      ],
      "min": [
        -0.999956488609314,
        -0.9999997615814209,
        -0.9999951124191284
      ],
      "type": "VEC3"
    },
    {
      "bufferView": 1,
      "byteOffset": 1048512,
      "componentType": 5126,
      "count": 65532,
      "max": [
        0.9980080127716064,
        0.8971840143203735
      ],
      "min": [
        0.002968000015243888,
        0.01144300028681755
      ],
      "type": "VEC2"
    },
    {
      "bufferView": 0,
      "byteOffset": 2997888,
      "componentType": 5125,
      "count": 369408,
      "type": "SCALAR"
    },
    {
      "bufferView": 2,
      "byteOffset": 4718304,
      "componentType": 5126,
      "count": 65532,
      "max": [
        159.59078979492188,
        -395.3515930175781,
        164.74691772460938
      ],
      "min": [
        -142.4066619873047,
        -666.5960083007813,
        -99.88953399658203
      ],
      "type": "VEC3"
    },
    {
      "bufferView": 2,
      "byteOffset": 5504688,
      "componentType": 5126,
      "count": 65532,
      "max": [
        0.9574452638626099,
        0.993587851524353,
        0.9999706149101257
      ],
      "min": [
        -0.9999998807907104,
        -0.999901533126831,
        -1.0
      ],
      "type": "VEC3"
    },
    {
      "bufferView": 1,
      "byteOffset": 1572768,
      "componentType": 5126,
      "count": 65532,
      "max": [
        0.9932940006256104,
        0.8328210115432739
      ],
      "min": [
        0.01001300010830164,
        0.001791000016964972
      ],
      "type": "VEC2"
    },
    {
      "bufferView": 0,
      "byteOffset": 4475520,
      "componentType": 5125,
      "count": 378267,
      "type": "SCALAR"
    },
    {
      "bufferView": 2,
      "byteOffset": 6291072,
      "componentType": 5126,
      "count": 65532,
      "max": [
        171.1352081298828,
        -412.30267333984375,
        174.9291229248047
      ],
      "min": [
        -157.26028442382813,
        -695.87890625,
        -107.6019058227539
      ],
      "type": "VEC3"
    },
    {
      "bufferView": 2,
      "byteOffset": 7077456,
      "componentType": 5126,
      "count": 65532,
      "max": [
        0.9999964833259583,
        0.9999803304672241,
        0.9999996423721313
      ],
      "min": [
        -0.9999974966049194,
        -0.9999955296516418,
        -0.9999996423721313
      ],
      "type": "VEC3"
    },
    {
      "bufferView": 1,
      "byteOffset": 2097024,
      "componentType": 5126,
      "count": 65532,
      "max": [
        0.9980080127716064,
        0.8971859812736511
      ],
      "min": [
        0.0019920000340789557,
        0.0023880000226199627
      ],
      "type": "VEC2"
    },
    {
      "bufferView": 0,
      "byteOffset": 5988588,
      "componentType": 5125,
      "count": 327543,
      "type": "SCALAR"
    },
    {
      "bufferView": 2,
      "byteOffset": 7863840,
      "componentType": 5126,
      "count": 65532,
      "max": [
        170.82321166992188,
        -392.3717041015625,
        173.8104248046875
      ],
      "min": [
        -157.0958251953125,
        -688.0140380859375,
        -106.20633697509766
      ],
      "type": "VEC3"
    },
    {
      "bufferView": 2,
      "byteOffset": 8650224,
      "componentType": 5126,
      "count": 65532,
      "max": [
        0.9999929070472717,
        0.9999998807907104,
        0.999997615814209
      ],
      "min": [
        -0.999969482421875,
        -0.9980341196060181,
        -0.9999977350234985
      ],
      "type": "VEC3"
    },
    {
      "bufferView": 1,
      "byteOffset": 2621280,
      "componentType": 5126,
      "count": 65532,
      "max": [
        0.9980080127716064,
        0.8923479914665222
      ],
      "min": [
        0.00203000009059906,
        0.001791000016964972
      ],
      "type": "VEC2"
    },
    {
      "bufferView": 0,
      "byteOffset": 7298760,
      "componentType": 5125,
      "count": 349923,
      "type": "SCALAR"
    },
    {
      "bufferView": 2,
      "byteOffset": 9436608,
      "componentType": 5126,
      "count": 37737,
      "max": [
        170.73678588867188,
        -392.3717041015625,
        174.5241241455078
      ],
      "min": [
        -156.58807373046875,
        -699.1660766601563,
        -105.80260467529297
      ],
      "type": "VEC3"
    },
    {
      "bufferView": 2,
      "byteOffset": 9889452,
      "componentType": 5126,
      "count": 37737,
      "max": [
        0.9999966621398926,
        0.999999463558197,
        0.9999997615814209
      ],
      "min": [
        -0.9999722242355347,
        -0.9994198679924011,
        -0.9999987483024597
      ],
      "type": "VEC3"
    },
    {
      "bufferView": 1,
      "byteOffset": 3145536,
      "componentType": 5126,
      "count": 37737,
      "max": [
        0.9980080127716064,
        0.8971859812736511
      ],
      "min": [
        0.0019920000340789557,
        0.001791000016964972
      ],
      "type": "VEC2"
    },
    {
      "bufferView": 0,
      "byteOffset": 8698452,
      "componentType": 5125,
      "count": 149235,
      "type": "SCALAR"
    }
  ],
  "asset": {
    "extras": {
      "author": "Connections XR (https://sketchfab.com/connectionsxr)",
      "license": "CC-BY-4.0 (http://creativecommons.org/licenses/by/4.0/)",
      "source": "https://sketchfab.com/3d-models/emergency-medical-services-box-c63c74e3cefa48e787912477889f738e",
      "title": "Emergency Medical Services Box"
    },
    "generator": "Sketchfab-13.74.0",
    "version": "2.0"
  },
  "bufferViews": [
    {
      "buffer": 0,
      "byteLength": 9295392,
      "name": "floatBufferViews",
      "target": 34963
    },
    {
      "buffer": 0,
      "byteLength": 3447432,
      "byteOffset": 9295392,
      "byteStride": 8,
      "name": "floatBufferViews",
      "target": 34962
    },
    {
      "buffer": 0,
      "byteLength": 10342296,
      "byteOffset": 12742824,
      "byteStride": 12,
      "name": "floatBufferViews",
      "target": 34962
    }
  ],
  "buffers": [
    {
      "byteLength": 23085120,
      "uri": "scene.bin"
    }
  ],
  "images": [
    {
      "uri": "textures/material_0_baseColor.png"
    }
  ],
  "materials": [
    {
      "doubleSided": true,
      "name": "material_0",
      "pbrMetallicRoughness": {
        "baseColorTexture": {
          "index": 0
        },
        "metallicFactor": 0.20903201219512196,
        "roughnessFactor": 0.5017149390243902
      }
    }
  ],
  "meshes": [
    {
      "name": "Object_0",
      "primitives": [
        {
          "attributes": {
            "NORMAL": 1,
            "POSITION": 0,
            "TEXCOORD_0": 2
          },
          "indices": 3,
          "material": 0,
          "mode": 4
        }
      ]
    },
    {
      "name": "Object_1",
      "primitives": [
        {
          "attributes": {
            "NORMAL": 5,
            "POSITION": 4,
            "TEXCOORD_0": 6
          },
          "indices": 7,
          "material": 0,
          "mode": 4
        }
      ]
    },
    {
      "name": "Object_2",
      "primitives": [
        {
          "attributes": {
            "NORMAL": 9,
            "POSITION": 8,
            "TEXCOORD_0": 10
          },
          "indices": 11,
          "material": 0,
          "mode": 4
        }
      ]
    },
    {
      "name": "Object_3",
      "primitives": [
        {
          "attributes": {
            "NORMAL": 13,
            "POSITION": 12,
            "TEXCOORD_0": 14
          },
          "indices": 15,
          "material": 0,
          "mode": 4
        }
      ]
    },
    {
      "name": "Object_4",
      "primitives": [
        {
          "attributes": {
            "NORMAL": 17,
            "POSITION": 16,
            "TEXCOORD_0": 18
          },
          "indices": 19,
          "material": 0,
          "mode": 4
        }
      ]
    },
    {
      "name": "Object_5",
      "primitives": [
        {
          "attributes": {
            "NORMAL": 21,
            "POSITION": 20,
            "TEXCOORD_0": 22
          },
          "indices": 23,
          "material": 0,
          "mode": 4
        }
      ]
    },
    {
      "name": "Object_6",
      "primitives": [
        {
          "attributes": {
            "NORMAL": 25,
            "POSITION": 24,
            "TEXCOORD_0": 26
          },
          "indices": 27,
          "material": 0,
          "mode": 4
        }
      ]
    }
  ],
  "nodes": [
    {
      "children": [
        1
      ],
      "matrix": [
        0.9966776967048645,
        0.08144542574882507,
        -0.0004414822906255541,
        0.0,
        0.08144008368253708,
        -0.9966517090797424,
        -0.007271662820130808,
        0.0,
        -0.0010322477901354432,
        0.007211549673229678,
        -0.999973475933075,
        0.0,
        0.0,
        0.0,
        0.0,
        1.0
      ],
      "name": "Sketchfab_model"
    },
    {
      "children": [
        2,
        3,
        4,
        5,
        6,
        7,
        8
      ],
      "name": "IFD_FirstAidKit_HR_Geometry.obj.cleaner.materialmerger.gles"
    },
    {
      "mesh": 0,
      "name": "Object_2"
    },
    {
      "mesh": 1,
      "name": "Object_3"
    },
    {
      "mesh": 2,
      "name": "Object_4"
    },
    {
      "mesh": 3,
      "name": "Object_5"
    },
    {
      "mesh": 4,
      "name": "Object_6"
    },
    {
      "mesh": 5,
      "name": "Object_7"
    },
    {
      "mesh": 6,
      "name": "Object_8"
    }
  ],
  "samplers": [
    {
      "magFilter": 9729,
      "minFilter": 9987,
      "wrapS": 10497,
      "wrapT": 10497
    }
  ],
  "scene": 0,
  "scenes": [
    {
      "name": "Sketchfab_Scene",
      "nodes": [
        0
      ]
    }
  ],
  "textures": [
    {
      "sampler": 0,
      "source": 0
    }
  ]
}
