# Blender 3.6.2
# www.blender.org
mtllib myModel2.mtl
o Cube
v 0.260479 0.500000 -0.260479
v 0.500000 -0.500000 -0.500000
v 0.500000 0.500000 0.500000
v 0.500000 -0.500000 0.500000
v -0.500000 0.500000 -0.500000
v -0.500000 -0.500000 -0.500000
v -0.260479 0.500000 0.260479
v -0.500000 -0.500000 0.500000
v -0.500000 -0.500000 0.000000
v 0.000000 -0.500000 -0.500000
v 0.500000 0.000000 -0.500000
v -0.500000 0.000000 0.500000
v 0.500000 0.000000 0.500000
v -0.500000 0.000000 -0.500000
v 0.000000 0.500000 0.500000
v 0.500000 0.500000 0.000000
v 0.000000 -0.500000 0.500000
v -0.500000 0.500000 0.000000
v 0.000000 0.500000 -0.500000
v 0.500000 -0.500000 0.000000
v 0.000000 0.000000 -0.500000
v 0.500000 0.000000 0.000000
v 0.000000 -0.500000 0.000000
v -0.500000 0.000000 0.000000
v 0.000000 0.000000 0.500000
v 0.000000 0.834635 0.000000
vn -0.4755 0.7402 0.4755
vn -0.2877 0.2877 0.9135
vn -1.0000 -0.0000 -0.0000
vn -0.0000 -1.0000 -0.0000
vn 1.0000 -0.0000 -0.0000
vn 0.2877 0.2877 -0.9135
vn -0.0000 -0.0000 -1.0000
vn 0.9135 0.2877 -0.2877
vn -0.9135 0.2877 0.2877
vn -0.0000 -0.0000 1.0000
vn 0.3025 0.9039 0.3025
vn 0.4755 0.7402 -0.4755
vn -0.3025 0.9039 -0.3025
vt 0.750000 0.625000
vt 0.875000 0.625000
vt 0.875000 0.750000
vt 0.750000 0.750000
vt 0.500000 0.875000
vt 0.625000 0.875000
vt 0.625000 1.000000
vt 0.500000 1.000000
vt 0.500000 0.125000
vt 0.625000 0.125000
vt 0.625000 0.250000
vt 0.500000 0.250000
vt 0.250000 0.625000
vt 0.375000 0.625000
vt 0.375000 0.750000
vt 0.250000 0.750000
vt 0.500000 0.625000
vt 0.625000 0.625000
vt 0.625000 0.750000
vt 0.500000 0.750000
vt 0.500000 0.375000
vt 0.625000 0.375000
vt 0.625000 0.500000
vt 0.500000 0.500000
vt 0.375000 0.375000
vt 0.375000 0.500000
vt 0.375000 0.250000
vt 0.125000 0.625000
vt 0.125000 0.750000
vt 0.125000 0.500000
vt 0.250000 0.500000
vt 0.375000 0.125000
vt 0.375000 0.000000
vt 0.500000 0.000000
vt 0.625000 0.000000
vt 0.375000 0.875000
vt 0.375000 1.000000
vt 0.750000 0.500000
vt 0.875000 0.500000
s 0
usemtl Material
f 26/1/1 18/2/1 7/3/1 15/4/1
f 25/5/2 15/6/2 7/7/2 12/8/2
f 24/9/3 18/10/3 5/11/3 14/12/3
f 23/13/4 20/14/4 4/15/4 17/16/4
f 22/17/5 16/18/5 3/19/5 13/20/5
f 21/21/6 19/22/6 1/23/6 11/24/6
f 10/25/7 21/21/7 11/24/7 2/26/7
f 6/27/7 14/12/7 21/21/7 10/25/7
f 14/12/7 5/11/7 19/22/7 21/21/7
f 20/14/5 22/17/5 13/20/5 4/15/5
f 2/26/5 11/24/5 22/17/5 20/14/5
f 11/24/8 1/23/8 16/18/8 22/17/8
f 9/28/4 23/13/4 17/16/4 8/29/4
f 6/30/4 10/31/4 23/13/4 9/28/4
f 10/31/4 2/26/4 20/14/4 23/13/4
f 9/32/3 24/9/3 14/12/3 6/27/3
f 8/33/3 12/34/3 24/9/3 9/32/3
f 12/34/9 7/35/9 18/10/9 24/9/9
f 17/36/10 25/5/10 12/8/10 8/37/10
f 4/15/10 13/20/10 25/5/10 17/36/10
f 13/20/10 3/19/10 15/6/10 25/5/10
f 16/18/11 26/1/11 15/4/11 3/19/11
f 1/23/12 19/38/12 26/1/12 16/18/12
f 19/38/13 5/39/13 18/2/13 26/1/13
